<?xml version="1.0" encoding="utf-8"?>
<!-- Generator: Adobe Illustrator 19.2.1, SVG Export Plug-In . SVG Version: 6.00 Build 0)  -->
<svg version="1.1" xmlns="http://www.w3.org/2000/svg" xmlns:xlink="http://www.w3.org/1999/xlink" x="0px" y="0px"
	 viewBox="0 0 129.7 129.7" style="enable-background:new 0 0 129.7 129.7;" xml:space="preserve">
<style type="text/css">
	.st0{fill:#F15F5C;}
	.st1{fill:#FFFFFF;}
</style>
<g id="Layer_2">
	<circle class="st0" cx="64.9" cy="64.9" r="64.9"/>
</g>
<g id="Layer_1">
	<g>
		<path class="st1" d="M68.4,75.9h-7.8v-4c0-1.4,0.1-2.7,0.4-3.9c0.3-1.2,0.7-2.2,1.2-3.1c0.5-0.9,1.2-1.8,1.9-2.7
			c0.7-0.9,1.6-1.7,2.5-2.6l3.1-2.9c1.2-1,2.2-2.2,3-3.4c0.8-1.2,1.2-2.8,1.2-4.8c0-2.6-0.8-4.8-2.5-6.3c-1.7-1.6-3.8-2.4-6.5-2.4
			c-2.8,0-5,0.9-6.6,2.6c-1.7,1.8-2.6,3.9-2.9,6.5L47.5,48c0.3-2.4,1-4.5,2.1-6.4c1-1.9,2.4-3.5,3.9-4.8s3.4-2.3,5.4-3
			c2-0.7,4.2-1,6.5-1c2.3,0,4.5,0.3,6.5,1c2,0.7,3.8,1.6,5.3,2.9c1.5,1.3,2.8,2.9,3.6,4.8c0.9,1.9,1.3,4.1,1.3,6.6
			c0,1.8-0.2,3.3-0.6,4.6s-0.9,2.5-1.6,3.6c-0.7,1.1-1.5,2.1-2.5,3c-1,0.9-2.1,1.9-3.2,2.9c-1.1,0.9-2,1.8-2.8,2.5
			c-0.8,0.7-1.4,1.5-1.8,2.3c-0.4,0.8-0.8,1.6-1,2.6c-0.2,0.9-0.3,2.1-0.3,3.5V75.9z M70.5,91.4c0,1.5-0.5,2.8-1.6,3.9
			c-1,1.1-2.4,1.7-4,1.7c-1.5,0-2.9-0.5-3.9-1.6c-1.1-1.1-1.6-2.3-1.6-3.8c0-1.5,0.5-2.8,1.6-3.8c1-1.1,2.4-1.6,4-1.6
			c1.6,0,2.9,0.5,4,1.6C69.9,88.8,70.5,90.1,70.5,91.4z"/>
	</g>
</g>
</svg>
