<?xml version="1.0" encoding="utf-8"?>
<!-- Generator: Adobe Illustrator 19.2.1, SVG Export Plug-In . SVG Version: 6.00 Build 0)  -->
<svg version="1.1" id="Layer_1" xmlns="http://www.w3.org/2000/svg" xmlns:xlink="http://www.w3.org/1999/xlink" x="0px" y="0px"
	 viewBox="0 0 74.2 75.6" style="enable-background:new 0 0 74.2 75.6;" xml:space="preserve">
<style type="text/css">
	.st0{fill:#F05F5C;}
	.st1{fill:#FFFFFF;}
</style>
<circle class="st0" cx="37.1" cy="37.5" r="37.1"/>
<circle class="st1" cx="36.7" cy="53.4" r="2.8"/>
<path class="st1" d="M27.6,28.6c1.1,0,2-0.9,2-2c0-4.2,3.4-7.6,7.5-7.6s7.5,3.4,7.5,7.6c0,5.4-2.9,7.2-5.6,8.9
	c-2.1,1.3-4.5,2.9-4.5,5.9c0,0.1,0,0.1,0,0.2c0,0.1,0,0.1,0,0.2v3.3c0,1.1,0.9,2,2,2s2-0.9,2-2v-3.2c0-0.1,0-0.1,0-0.2
	c0-0.1,0-0.1,0-0.2c0-0.8,0.8-1.4,2.7-2.6c3-1.9,7.5-4.7,7.5-12.3c0-6.4-5.2-11.6-11.5-11.6s-11.5,5.2-11.5,11.6
	C25.6,27.8,26.5,28.6,27.6,28.6z"/>
</svg>
